<?xml version="1.0" encoding="UTF-8" standalone="no"?>
<!-- Created with Inkscape (http://www.inkscape.org/) -->

<svg
   width="210mm"
   height="297mm"
   viewBox="0 0 210 297"
   version="1.1"
   id="svg1"
   inkscape:version="1.3.2 (091e20e, 2023-11-25, custom)"
   sodipodi:docname="decomposition.svg"
   xmlns:inkscape="http://www.inkscape.org/namespaces/inkscape"
   xmlns:sodipodi="http://sodipodi.sourceforge.net/DTD/sodipodi-0.dtd"
   xmlns="http://www.w3.org/2000/svg"
   xmlns:svg="http://www.w3.org/2000/svg"
   xmlns:ns2="http://www.iki.fi/pav/software/textext/">
  <sodipodi:namedview
     id="namedview1"
     pagecolor="#ffffff"
     bordercolor="#999999"
     borderopacity="1"
     inkscape:showpageshadow="2"
     inkscape:pageopacity="0"
     inkscape:pagecheckerboard="0"
     inkscape:deskcolor="#d1d1d1"
     inkscape:document-units="mm"
     showgrid="true"
     showguides="true"
     inkscape:zoom="1.5215769"
     inkscape:cx="356.53801"
     inkscape:cy="270.11451"
     inkscape:window-width="1920"
     inkscape:window-height="1051"
     inkscape:window-x="-9"
     inkscape:window-y="-9"
     inkscape:window-maximized="1"
     inkscape:current-layer="layer1">
    <inkscape:grid
       id="grid1"
       units="mm"
       originx="0"
       originy="0"
       spacingx="0.99999998"
       spacingy="1"
       empcolor="#0099e5"
       empopacity="0.30196078"
       color="#0099e5"
       opacity="0.14901961"
       empspacing="5"
       dotted="false"
       gridanglex="30"
       gridanglez="30"
       visible="true" />
    <sodipodi:guide
       position="77.72775,287.00001"
       orientation="0,-1"
       id="guide1"
       inkscape:locked="false" />
    <sodipodi:guide
       position="10,287.00001"
       orientation="1,0"
       id="guide2"
       inkscape:locked="false" />
    <sodipodi:guide
       position="200,292.00001"
       orientation="1,0"
       id="guide3"
       inkscape:locked="false" />
    <sodipodi:guide
       position="97.898711,206.05679"
       orientation="0,-1"
       id="guide4"
       inkscape:locked="false" />
  </sodipodi:namedview>
  <defs
     id="defs1">
    <marker
       style="overflow:visible"
       id="Triangle"
       refX="0"
       refY="0"
       orient="auto-start-reverse"
       inkscape:stockid="Triangle arrow"
       markerWidth="1"
       markerHeight="1"
       viewBox="0 0 1 1"
       inkscape:isstock="true"
       inkscape:collect="always"
       preserveAspectRatio="xMidYMid">
      <path
         transform="scale(0.5)"
         style="fill:context-stroke;fill-rule:evenodd;stroke:context-stroke;stroke-width:1pt"
         d="M 5.77,0 -2.88,5 V -5 Z"
         id="path135" />
    </marker>
    <marker
       style="overflow:visible"
       id="ConcaveTriangle"
       refX="0"
       refY="0"
       orient="auto-start-reverse"
       inkscape:stockid="Concave triangle arrow"
       markerWidth="1"
       markerHeight="1"
       viewBox="0 0 1 1"
       inkscape:isstock="true"
       inkscape:collect="always"
       preserveAspectRatio="xMidYMid">
      <path
         transform="scale(0.7)"
         d="M -2,-4 9,0 -2,4 c 2,-2.33 2,-5.66 0,-8 z"
         style="fill:context-stroke;fill-rule:evenodd;stroke:none"
         id="path9" />
    </marker>
    <inkscape:path-effect
       effect="bspline"
       id="path-effect9"
       is_visible="true"
       lpeversion="1.3"
       weight="33.333333"
       steps="2"
       helper_size="0"
       apply_no_weight="true"
       apply_with_weight="true"
       only_selected="false"
       uniform="false" />
    <inkscape:path-effect
       effect="bspline"
       id="path-effect8"
       is_visible="true"
       lpeversion="1.3"
       weight="33.333333"
       steps="2"
       helper_size="0"
       apply_no_weight="true"
       apply_with_weight="true"
       only_selected="false"
       uniform="false" />
    <inkscape:path-effect
       effect="bspline"
       id="path-effect7"
       is_visible="true"
       lpeversion="1.3"
       weight="33.333333"
       steps="2"
       helper_size="0"
       apply_no_weight="true"
       apply_with_weight="true"
       only_selected="false"
       uniform="false" />
    <inkscape:path-effect
       effect="bspline"
       id="path-effect6"
       is_visible="true"
       lpeversion="1.3"
       weight="33.333333"
       steps="2"
       helper_size="0"
       apply_no_weight="true"
       apply_with_weight="true"
       only_selected="false"
       uniform="false" />
    <inkscape:path-effect
       effect="bspline"
       id="path-effect5"
       is_visible="true"
       lpeversion="1.3"
       weight="33.333333"
       steps="2"
       helper_size="0"
       apply_no_weight="true"
       apply_with_weight="true"
       only_selected="false"
       uniform="false" />
    <inkscape:path-effect
       effect="bspline"
       id="path-effect4"
       is_visible="true"
       lpeversion="1.3"
       weight="33.333333"
       steps="2"
       helper_size="0"
       apply_no_weight="true"
       apply_with_weight="true"
       only_selected="false"
       uniform="false" />
    <marker
       style="overflow:visible"
       id="ConcaveTriangle-1"
       refX="0"
       refY="0"
       orient="auto-start-reverse"
       inkscape:stockid="Concave triangle arrow"
       markerWidth="1"
       markerHeight="1"
       viewBox="0 0 1 1"
       inkscape:isstock="true"
       inkscape:collect="always"
       preserveAspectRatio="xMidYMid">
      <path
         transform="scale(0.7)"
         d="M -2,-4 9,0 -2,4 c 2,-2.33 2,-5.66 0,-8 z"
         style="fill:context-stroke;fill-rule:evenodd;stroke:none"
         id="path9-0" />
    </marker>
    <inkscape:path-effect
       effect="bspline"
       id="path-effect9-7"
       is_visible="true"
       lpeversion="1.3"
       weight="33.333333"
       steps="2"
       helper_size="0"
       apply_no_weight="true"
       apply_with_weight="true"
       only_selected="false"
       uniform="false" />
    <marker
       style="overflow:visible"
       id="ConcaveTriangle-0"
       refX="0"
       refY="0"
       orient="auto-start-reverse"
       inkscape:stockid="Concave triangle arrow"
       markerWidth="1"
       markerHeight="1"
       viewBox="0 0 1 1"
       inkscape:isstock="true"
       inkscape:collect="always"
       preserveAspectRatio="xMidYMid">
      <path
         transform="scale(0.7)"
         d="M -2,-4 9,0 -2,4 c 2,-2.33 2,-5.66 0,-8 z"
         style="fill:context-stroke;fill-rule:evenodd;stroke:none"
         id="path9-4" />
    </marker>
    <inkscape:path-effect
       effect="bspline"
       id="path-effect9-6"
       is_visible="true"
       lpeversion="1.3"
       weight="33.333333"
       steps="2"
       helper_size="0"
       apply_no_weight="true"
       apply_with_weight="true"
       only_selected="false"
       uniform="false" />
  </defs>
  <g
     inkscape:label="Layer 1"
     inkscape:groupmode="layer"
     id="layer1">
    <path
       style="fill:#319ce6;fill-opacity:1;stroke:#0c0000;stroke-width:0.15182854;stroke-linejoin:bevel;stroke-miterlimit:6.2;stroke-dasharray:none;paint-order:markers fill stroke"
       d="m 33.133611,48.999998 c -0.759978,1.666667 -0.946795,3.333333 -0.113565,5.333357 0.833231,2.000023 2.686433,4.333309 5.186465,5.499975 2.500031,1.166666 5.646729,1.166666 7.886789,-2.3e-5 2.24006,-1.16669 3.573367,-3.499976 3.573354,-6.000003 -1.3e-5,-2.500026 -1.33332,-5.16664 -3.740044,-6.833313 -2.406724,-1.666673 -5.886699,-2.333326 -8.293304,-1.833309 -2.406606,0.500017 -3.739717,2.16665 -4.499695,3.833316 z"
       id="path5"
       inkscape:path-effect="#path-effect6"
       inkscape:original-d="m 32.56045,48.999999 c -0.186817,1.666666 -0.373634,3.333332 -0.560451,4.999998 1.853277,2.333382 3.706479,4.666668 5.559719,6.999999 3.146824,0 6.293522,0 9.440283,0 1.333359,-2.333379 2.666666,-4.666665 4,-6.999999 -1.33336,-2.666719 -2.666667,-5.333333 -4,-8 -3.480115,-0.666678 -6.96009,-1.333333 -10.440136,-1.999998 -1.333164,1.6667 -2.666277,3.333332 -3.999415,5 z"
       transform="matrix(1.2868527,0,0,1.3484174,-9.1007813,-18.375607)" />
    <path
       style="fill:#319ce6;fill-opacity:1;stroke:#0c0000;stroke-width:0.2;stroke-linejoin:bevel;stroke-miterlimit:6.2;stroke-dasharray:none;paint-order:markers fill stroke"
       d="m 90.483119,22.222481 c -2.149785,2.500001 -3.816451,5.138758 -2.983084,8.124838 0.833367,2.98608 4.166632,6.319345 9.166698,7.152662 5.000067,0.833318 11.666597,-0.833315 14.999937,-4.514969 C 115,29.303358 115,23.606947 112.14973,20.273604 c -2.85027,-3.333342 -8.55059,-4.303464 -12.717283,-3.60789 -4.166692,0.695574 -6.799542,3.056767 -8.949328,5.556767 z"
       id="path6"
       inkscape:path-effect="#path-effect7"
       inkscape:original-d="m 90.000001,22.083723 c -1.666666,2.638759 -3.333334,5.277516 -5,7.916275 3.333401,3.333401 6.666666,6.666666 10.000001,10.000001 6.666798,-1.6667 13.333328,-3.333335 19.999998,-5.000001 0,-5.69664 0,-11.393051 0,-17.089577 -5.70054,-0.97016 -11.40086,-1.940281 -17.101289,-2.910422 -2.632956,2.361289 -5.265806,4.722483 -7.89871,7.083724 z" />
    <path
       style="fill:#319ce6;fill-opacity:1;stroke:#0c0000;stroke-width:0.2;stroke-linejoin:bevel;stroke-miterlimit:6.2;stroke-dasharray:none;paint-order:markers fill stroke"
       d="m 167.89422,39.438328 c -4.56088,0.833332 -11.22755,3.197502 -13.72754,6.501408 -2.49998,3.303907 -0.83335,7.547381 2.50004,9.553234 3.33338,2.005853 8.33328,1.774008 13.33333,1.318888 C 175.0001,56.356738 180,55.678375 182.5,53.672486 c 2.5,-2.005889 2.5,-5.339155 1.22753,-7.839172 -1.27247,-2.500016 -3.81731,-4.166652 -6.31733,-5.348741 -2.50002,-1.182089 -4.95509,-1.879578 -9.51598,-1.046245 z"
       id="path7"
       inkscape:path-effect="#path-effect8"
       inkscape:original-d="m 170,37.907494 c -6.66666,2.364168 -13.33333,4.728337 -20,7.092505 1.6667,4.243644 3.33333,8.487119 5,12.730679 5.0001,-0.231855 10,-0.463698 15,-0.69555 5.0001,-0.678389 10,-1.356754 15,-2.03513 0,-3.333401 0,-6.666667 0,-9.999999 -2.54494,-1.6667 -5.08978,-3.333334 -7.63466,-5 C 174.91018,39.302483 172.45511,38.604996 170,37.907494 Z" />
    <path
       style="fill:none;fill-opacity:1;stroke:#13389f;stroke-width:0.4;stroke-linejoin:bevel;stroke-miterlimit:6.2;stroke-dasharray:none;stroke-opacity:1;marker-end:url(#ConcaveTriangle);paint-order:markers fill stroke"
       d="M 50,39.999999 C 53.94812,35.380434 57.89616,30.760963 62.896259,28.260913 67.896359,25.760863 73.948119,25.380435 80,24.999999"
       id="path8"
       inkscape:path-effect="#path-effect9"
       inkscape:original-d="M 50,39.999999 C 53.94812,35.380434 57.89616,30.760963 61.844357,26.141307 67.896359,25.760863 73.948119,25.380435 80,24.999999"
       sodipodi:nodetypes="ccc" />
    <path
       style="fill:none;fill-opacity:1;stroke:#13389f;stroke-width:0.4;stroke-linejoin:bevel;stroke-miterlimit:6.2;stroke-dasharray:none;stroke-opacity:1;marker-end:url(#ConcaveTriangle-1);paint-order:markers fill stroke"
       d="M 50,39.999999 C 54.496367,34.780276 58.992643,29.560658 64.102242,26.437804 69.211841,23.31495 74.934356,22.289109 80.656984,21.263248"
       id="path8-7"
       inkscape:path-effect="#path-effect9-7"
       inkscape:original-d="M 50,39.999999 C 54.496367,34.780276 58.992643,29.560658 63.489099,24.340832 69.211841,23.31495 74.934356,22.289109 80.656984,21.263248"
       transform="rotate(53.242463,104.12535,102.29276)"
       sodipodi:nodetypes="ccc" />
    <circle
       style="fill:#050300;fill-opacity:1;stroke:none;stroke-width:0.3;stroke-linejoin:bevel;stroke-miterlimit:6.2;stroke-dasharray:none;stroke-opacity:1;paint-order:markers fill stroke"
       id="path10"
       cx="41.254902"
       cy="49.804665"
       r="0.75" />
    <circle
       style="fill:#050300;fill-opacity:1;stroke:none;stroke-width:0.3;stroke-linejoin:bevel;stroke-miterlimit:6.2;stroke-dasharray:none;stroke-opacity:1;paint-order:markers fill stroke"
       id="path10-0"
       cx="110.01302"
       cy="23.881128"
       r="0.75" />
    <circle
       style="fill:#050300;fill-opacity:1;stroke:none;stroke-width:0.3;stroke-linejoin:bevel;stroke-miterlimit:6.2;stroke-dasharray:none;stroke-opacity:1;paint-order:markers fill stroke"
       id="path10-8"
       cx="165.75"
       cy="45"
       r="0.75" />
    <text
       xml:space="preserve"
       style="font-size:5.29167px;font-family:Calibri;-inkscape-font-specification:Calibri;text-align:center;text-anchor:middle;fill:#050300;fill-opacity:1;stroke:none;stroke-width:0.4;stroke-linejoin:bevel;stroke-miterlimit:6.2;stroke-dasharray:none;stroke-opacity:1;paint-order:markers fill stroke"
       x="45.511379"
       y="68.619934"
       id="text10"><tspan
         sodipodi:role="line"
         id="tspan10"
         style="font-size:5.29167px;stroke-width:0.4"
         x="45.511379"
         y="68.619934">Reference Configuration</tspan></text>
    <text
       xml:space="preserve"
       style="font-size:5.29167px;font-family:Calibri;-inkscape-font-specification:Calibri;text-align:center;text-anchor:middle;fill:#050300;fill-opacity:1;stroke:none;stroke-width:0.4;stroke-linejoin:bevel;stroke-miterlimit:6.2;stroke-dasharray:none;stroke-opacity:1;paint-order:markers fill stroke"
       x="100"
       y="15"
       id="text11"><tspan
         sodipodi:role="line"
         id="tspan11"
         style="stroke-width:0.4"
         x="100"
         y="15">Intermediate Configuration</tspan></text>
    <text
       xml:space="preserve"
       style="font-size:5.29167px;font-family:Calibri;-inkscape-font-specification:Calibri;text-align:center;text-anchor:middle;fill:#050300;fill-opacity:1;stroke:none;stroke-width:0.4;stroke-linejoin:bevel;stroke-miterlimit:6.2;stroke-dasharray:none;stroke-opacity:1;paint-order:markers fill stroke"
       x="168.11359"
       y="63.619934"
       id="text12"><tspan
         sodipodi:role="line"
         style="stroke-width:0.4"
         x="168.11359"
         y="63.619934"
         id="tspan13">Current Configuration</tspan></text>
    <path
       style="fill:none;fill-opacity:1;stroke:#000000;stroke-width:0.4;stroke-linejoin:bevel;stroke-miterlimit:6.2;stroke-dasharray:none;stroke-opacity:1;marker-end:url(#Triangle);paint-order:markers fill stroke"
       d="m 100,69.999997 8.60368,0.03074"
       id="path14"
       sodipodi:nodetypes="cc" />
    <path
       style="fill:none;fill-opacity:1;stroke:#000000;stroke-width:0.4;stroke-linejoin:bevel;stroke-miterlimit:6.2;stroke-dasharray:none;stroke-opacity:1;marker-end:url(#Triangle);paint-order:markers fill stroke;stroke-linecap:round"
       d="m 99.985363,70.076697 0.07421,-8.609995"
       id="path15"
       sodipodi:nodetypes="cc" />
    <path
       style="fill:none;fill-opacity:1;stroke:#003d69;stroke-width:0.4;stroke-linejoin:bevel;stroke-miterlimit:6.2;stroke-dasharray:none;stroke-opacity:1;marker-end:url(#Triangle);paint-order:markers fill stroke"
       d="M 100.56353,70.147021 42.529153,50.394475"
       id="path16"
       sodipodi:nodetypes="cc" />
    <path
       style="fill:none;fill-opacity:1;stroke:#003d69;stroke-width:0.4;stroke-linejoin:bevel;stroke-miterlimit:6.2;stroke-dasharray:none;stroke-opacity:1;marker-end:url(#Triangle);paint-order:markers fill stroke"
       d="m 99.964114,69.962585 64.583216,-24.4992"
       id="path17"
       sodipodi:nodetypes="cc" />
    <path
       style="fill:none;fill-opacity:1;stroke:#003d69;stroke-width:0.4;stroke-linecap:round;stroke-linejoin:bevel;stroke-miterlimit:6.2;stroke-dasharray:none;stroke-opacity:1;paint-order:markers fill stroke;marker-end:url(#Triangle)"
       d="m 100.08707,69.839627 9.59066,-44.879338"
       id="path18" />
    <text
       xml:space="preserve"
       style="font-size:7.05556px;font-family:Calibri;-inkscape-font-specification:Calibri;text-align:center;text-anchor:middle;fill:#050300;fill-opacity:1;stroke:#000000;stroke-width:0;stroke-linecap:round;stroke-linejoin:bevel;stroke-miterlimit:6.2;stroke-dasharray:none;stroke-opacity:1;paint-order:markers fill stroke"
       x="99.298401"
       y="75.869637"
       id="text18"><tspan
         sodipodi:role="line"
         id="tspan18"
         style="font-size:7.05556px;fill:#050300;fill-opacity:1;stroke:#000000;stroke-width:0;stroke-dasharray:none;stroke-opacity:1"
         x="99.298401"
         y="75.869637">O</tspan></text>
    <path
       style="fill:none;fill-opacity:1;stroke:#13389f;stroke-width:0.4;stroke-linejoin:bevel;stroke-miterlimit:6.2;stroke-dasharray:none;stroke-opacity:1;marker-end:url(#ConcaveTriangle-0);paint-order:markers fill stroke"
       d="M 9.6700731,27.458376 C 19.807035,30.462152 29.94379,33.465867 45.969262,33.445502 61.994734,33.425136 83.907645,30.38069 105.82099,27.336184"
       id="path8-9"
       inkscape:path-effect="#path-effect9-6"
       inkscape:original-d="M 9.6700731,27.458376 C 19.807035,30.462152 29.94379,33.465867 40.080952,36.469703 61.994734,33.425136 83.907645,30.38069 105.82099,27.336184"
       transform="translate(43.766299,18.44611)"
       sodipodi:nodetypes="ccc" />
    <g
       transform="matrix(1.0309878,0,0,1.1124235,136.28934,55.705968)"
       ns2:version="1.10.2"
       ns2:texconverter="pdflatex"
       ns2:pdfconverter="inkscape"
       ns2:text="$\\bm{x}$"
       ns2:preamble="C:\Users\Himanshu\AppData\Roaming\inkscape\extensions\textext\default_packages.tex"
       ns2:scale="1.0"
       ns2:alignment="middle center"
       ns2:stroke-to-path="0"
       ns2:inkscapeversion="1.3.2"
       id="g1690"
       ns2:jacobian_sqrt="0.352778">
      <defs
         id="id-3036da0a-b0e3-4721-8dc3-6e199e9d263d">
        <g
           id="id-2e603fb5-42cc-481f-980b-41849e80d9f2">
          <g
             id="id-e3057f2f-613a-4586-8b8c-db2531ad5c68">
            <path
               d="m 5.34375,-4 c -0.359375,0.109375 -0.53125,0.4375 -0.53125,0.6875 0,0.21875 0.15625,0.46875 0.484375,0.46875 0.359375,0 0.71875,-0.296875 0.71875,-0.78125 C 6.015625,-4.15625 5.5,-4.5 4.890625,-4.5 4.3125,-4.5 3.953125,-4.078125 3.8125,-3.890625 3.5625,-4.3125 3.015625,-4.5 2.4375,-4.5 c -1.25,0 -1.921875,1.21875 -1.921875,1.546875 0,0.140625 0.140625,0.140625 0.234375,0.140625 0.125,0 0.1875,0 0.234375,-0.125 0.28125,-0.90625 1,-1.203125 1.40625,-1.203125 0.375,0 0.5625,0.171875 0.5625,0.484375 0,0.203125 -0.140625,0.75 -0.234375,1.109375 L 2.375,-1.1875 c -0.140625,0.609375 -0.5,0.90625 -0.84375,0.90625 -0.046875,0 -0.28125,0 -0.46875,-0.140625 0.359375,-0.109375 0.53125,-0.453125 0.53125,-0.6875 0,-0.21875 -0.171875,-0.46875 -0.5,-0.46875 -0.34375,0 -0.71875,0.296875 -0.71875,0.78125 0,0.53125 0.53125,0.875 1.140625,0.875 0.5625,0 0.9375,-0.421875 1.0625,-0.609375 0.25,0.421875 0.8125,0.609375 1.375,0.609375 1.265625,0 1.9375,-1.21875 1.9375,-1.546875 0,-0.140625 -0.15625,-0.140625 -0.234375,-0.140625 -0.125,0 -0.1875,0 -0.234375,0.125 -0.28125,0.90625 -1,1.203125 -1.421875,1.203125 -0.375,0 -0.546875,-0.171875 -0.546875,-0.5 0,-0.203125 0.125,-0.734375 0.21875,-1.109375 0.0625,-0.25 0.296875,-1.1875 0.34375,-1.34375 0.15625,-0.609375 0.5,-0.90625 0.84375,-0.90625 0.0625,0 0.28125,0 0.484375,0.140625 z m 0,0"
               id="id-422d78c9-9ecf-4dba-8090-14946ed3085e" />
          </g>
        </g>
      </defs>
      <g
         fill="#000000"
         fill-opacity="1"
         id="id-b1f04bee-2b58-48bf-b5cb-d99e1a00f14f"
         transform="translate(-149.087,-130.265)">
        <g
           transform="translate(148.712,134.765)"
           id="g2390">
          <path
             d="m 5.34375,-4 c -0.359375,0.109375 -0.53125,0.4375 -0.53125,0.6875 0,0.21875 0.15625,0.46875 0.484375,0.46875 0.359375,0 0.71875,-0.296875 0.71875,-0.78125 C 6.015625,-4.15625 5.5,-4.5 4.890625,-4.5 4.3125,-4.5 3.953125,-4.078125 3.8125,-3.890625 3.5625,-4.3125 3.015625,-4.5 2.4375,-4.5 c -1.25,0 -1.921875,1.21875 -1.921875,1.546875 0,0.140625 0.140625,0.140625 0.234375,0.140625 0.125,0 0.1875,0 0.234375,-0.125 0.28125,-0.90625 1,-1.203125 1.40625,-1.203125 0.375,0 0.5625,0.171875 0.5625,0.484375 0,0.203125 -0.140625,0.75 -0.234375,1.109375 L 2.375,-1.1875 c -0.140625,0.609375 -0.5,0.90625 -0.84375,0.90625 -0.046875,0 -0.28125,0 -0.46875,-0.140625 0.359375,-0.109375 0.53125,-0.453125 0.53125,-0.6875 0,-0.21875 -0.171875,-0.46875 -0.5,-0.46875 -0.34375,0 -0.71875,0.296875 -0.71875,0.78125 0,0.53125 0.53125,0.875 1.140625,0.875 0.5625,0 0.9375,-0.421875 1.0625,-0.609375 0.25,0.421875 0.8125,0.609375 1.375,0.609375 1.265625,0 1.9375,-1.21875 1.9375,-1.546875 0,-0.140625 -0.15625,-0.140625 -0.234375,-0.140625 -0.125,0 -0.1875,0 -0.234375,0.125 -0.28125,0.90625 -1,1.203125 -1.421875,1.203125 -0.375,0 -0.546875,-0.171875 -0.546875,-0.5 0,-0.203125 0.125,-0.734375 0.21875,-1.109375 0.0625,-0.25 0.296875,-1.1875 0.34375,-1.34375 0.15625,-0.609375 0.5,-0.90625 0.84375,-0.90625 0.0625,0 0.28125,0 0.484375,0.140625 z m 0,0"
             id="id-b11ae9eb-d3eb-4ace-9f55-42fef6ca94be" />
        </g>
      </g>
    </g>
    <g
       transform="matrix(0.77273292,0,0,1.013392,77.946912,58.783855)"
       ns2:version="1.10.2"
       ns2:texconverter="pdflatex"
       ns2:pdfconverter="inkscape"
       ns2:text="$\\bm{X}$"
       ns2:preamble="C:\Users\Himanshu\AppData\Roaming\inkscape\extensions\textext\default_packages.tex"
       ns2:scale="1.0"
       ns2:alignment="middle center"
       ns2:stroke-to-path="0"
       ns2:inkscapeversion="1.3.2"
       id="g7304"
       ns2:jacobian_sqrt="0.352778">
      <defs
         id="id-2e077cd5-1094-46f4-bcb2-57dafe56436b">
        <g
           id="id-ed9e355e-e209-4700-a1c5-b814bebd452b">
          <g
             id="id-3937ee2f-f38f-48cf-ad50-ba2b993ac729">
            <path
               d="M 5.796875,-3.9375 7.125,-5.234375 l 0.609375,-0.625 c 0.40625,-0.375 0.515625,-0.5 1.5625,-0.515625 0.1875,0 0.203125,-0.25 0.203125,-0.28125 0,-0.0625 -0.046875,-0.1875 -0.203125,-0.1875 -0.34375,0 -0.71875,0.03125 -1.078125,0.03125 -0.296875,0 -1.015625,-0.03125 -1.296875,-0.03125 -0.078125,0 -0.28125,0 -0.28125,0.28125 0,0.1875 0.15625,0.1875 0.25,0.1875 0.296875,0.015625 0.5625,0.09375 0.59375,0.109375 l -1.90625,1.875 L 4.671875,-6.3125 C 4.765625,-6.328125 5.078125,-6.375 5.25,-6.375 c 0.109375,0 0.28125,0 0.28125,-0.28125 0,-0.125 -0.09375,-0.1875 -0.21875,-0.1875 -0.34375,0 -1.171875,0.03125 -1.515625,0.03125 -0.234375,0 -0.453125,0 -0.6875,0 -0.234375,0 -0.46875,-0.03125 -0.703125,-0.03125 -0.078125,0 -0.265625,0 -0.265625,0.28125 0,0.1875 0.125,0.1875 0.40625,0.1875 0.140625,0 0.25,0 0.390625,0.015625 0.140625,0.015625 0.140625,0.03125 0.203125,0.15625 l 1.375,2.875 -2.5,2.46875 c -0.1875,0.171875 -0.390625,0.375 -1.28125,0.390625 -0.171875,0 -0.34375,0 -0.34375,0.296875 C 0.390625,-0.109375 0.4375,0 0.59375,0 0.828125,0 1.4375,-0.03125 1.671875,-0.03125 1.96875,-0.03125 2.6875,0 2.96875,0 3.046875,0 3.25,0 3.25,-0.296875 3.25,-0.46875 3.078125,-0.46875 2.984375,-0.46875 2.796875,-0.46875 2.59375,-0.5 2.40625,-0.5625 l 2.3125,-2.3125 1.140625,2.34375 c -0.015625,0 -0.34375,0.0625 -0.578125,0.0625 -0.109375,0 -0.296875,0 -0.296875,0.296875 C 4.984375,-0.15625 5,0 5.203125,0 c 0.34375,0 1.1875,-0.03125 1.53125,-0.03125 0.21875,0 0.453125,0.015625 0.6875,0.015625 C 7.640625,-0.015625 7.890625,0 8.109375,0 8.1875,0 8.390625,0 8.390625,-0.296875 8.390625,-0.46875 8.234375,-0.46875 8,-0.46875 c -0.140625,0 -0.25,0 -0.390625,-0.015625 C 7.453125,-0.5 7.453125,-0.515625 7.375,-0.640625 Z m 0,0"
               id="id-21811f3a-a65a-451e-a98b-8080f4d2dc1d" />
          </g>
        </g>
      </defs>
      <g
         fill="#000000"
         fill-opacity="1"
         id="id-61ac6dc6-6107-4535-882f-188509c43b7d"
         transform="translate(-149.103,-127.921)">
        <g
           transform="translate(148.712,134.765)"
           id="g5930">
          <path
             d="M 5.796875,-3.9375 7.125,-5.234375 l 0.609375,-0.625 c 0.40625,-0.375 0.515625,-0.5 1.5625,-0.515625 0.1875,0 0.203125,-0.25 0.203125,-0.28125 0,-0.0625 -0.046875,-0.1875 -0.203125,-0.1875 -0.34375,0 -0.71875,0.03125 -1.078125,0.03125 -0.296875,0 -1.015625,-0.03125 -1.296875,-0.03125 -0.078125,0 -0.28125,0 -0.28125,0.28125 0,0.1875 0.15625,0.1875 0.25,0.1875 0.296875,0.015625 0.5625,0.09375 0.59375,0.109375 l -1.90625,1.875 L 4.671875,-6.3125 C 4.765625,-6.328125 5.078125,-6.375 5.25,-6.375 c 0.109375,0 0.28125,0 0.28125,-0.28125 0,-0.125 -0.09375,-0.1875 -0.21875,-0.1875 -0.34375,0 -1.171875,0.03125 -1.515625,0.03125 -0.234375,0 -0.453125,0 -0.6875,0 -0.234375,0 -0.46875,-0.03125 -0.703125,-0.03125 -0.078125,0 -0.265625,0 -0.265625,0.28125 0,0.1875 0.125,0.1875 0.40625,0.1875 0.140625,0 0.25,0 0.390625,0.015625 0.140625,0.015625 0.140625,0.03125 0.203125,0.15625 l 1.375,2.875 -2.5,2.46875 c -0.1875,0.171875 -0.390625,0.375 -1.28125,0.390625 -0.171875,0 -0.34375,0 -0.34375,0.296875 C 0.390625,-0.109375 0.4375,0 0.59375,0 0.828125,0 1.4375,-0.03125 1.671875,-0.03125 1.96875,-0.03125 2.6875,0 2.96875,0 3.046875,0 3.25,0 3.25,-0.296875 3.25,-0.46875 3.078125,-0.46875 2.984375,-0.46875 2.796875,-0.46875 2.59375,-0.5 2.40625,-0.5625 l 2.3125,-2.3125 1.140625,2.34375 c -0.015625,0 -0.34375,0.0625 -0.578125,0.0625 -0.109375,0 -0.296875,0 -0.296875,0.296875 C 4.984375,-0.15625 5,0 5.203125,0 c 0.34375,0 1.1875,-0.03125 1.53125,-0.03125 0.21875,0 0.453125,0.015625 0.6875,0.015625 C 7.640625,-0.015625 7.890625,0 8.109375,0 8.1875,0 8.390625,0 8.390625,-0.296875 8.390625,-0.46875 8.234375,-0.46875 8,-0.46875 c -0.140625,0 -0.25,0 -0.390625,-0.015625 C 7.453125,-0.5 7.453125,-0.515625 7.375,-0.640625 Z m 0,0"
             id="id-e8ff363c-33ec-46cc-9682-5d18237515c9" />
        </g>
      </g>
    </g>
    <g
       transform="matrix(0.84097311,0,0,0.94492101,79.295382,43.276008)"
       ns2:version="1.10.2"
       ns2:texconverter="pdflatex"
       ns2:pdfconverter="inkscape"
       ns2:text="$\\bm{x}(\\bm{X})$"
       ns2:preamble="C:\Users\Himanshu\AppData\Roaming\inkscape\extensions\textext\default_packages.tex"
       ns2:scale="1.0"
       ns2:alignment="middle center"
       ns2:stroke-to-path="0"
       ns2:inkscapeversion="1.3.2"
       id="g6717"
       ns2:jacobian_sqrt="0.352778">
      <defs
         id="id-509dd082-b519-40fe-ae46-2c4d93bb3c5b">
        <g
           id="id-f5f9597d-09d4-478a-be24-428f6958a8b5">
          <g
             id="id-4779718e-ac7b-45b6-b251-5f69ab1ea124">
            <path
               d="m 5.34375,-4 c -0.359375,0.109375 -0.53125,0.4375 -0.53125,0.6875 0,0.21875 0.15625,0.46875 0.484375,0.46875 0.359375,0 0.71875,-0.296875 0.71875,-0.78125 C 6.015625,-4.15625 5.5,-4.5 4.890625,-4.5 4.3125,-4.5 3.953125,-4.078125 3.8125,-3.890625 3.5625,-4.3125 3.015625,-4.5 2.4375,-4.5 c -1.25,0 -1.921875,1.21875 -1.921875,1.546875 0,0.140625 0.140625,0.140625 0.234375,0.140625 0.125,0 0.1875,0 0.234375,-0.125 0.28125,-0.90625 1,-1.203125 1.40625,-1.203125 0.375,0 0.5625,0.171875 0.5625,0.484375 0,0.203125 -0.140625,0.75 -0.234375,1.109375 L 2.375,-1.1875 c -0.140625,0.609375 -0.5,0.90625 -0.84375,0.90625 -0.046875,0 -0.28125,0 -0.46875,-0.140625 0.359375,-0.109375 0.53125,-0.453125 0.53125,-0.6875 0,-0.21875 -0.171875,-0.46875 -0.5,-0.46875 -0.34375,0 -0.71875,0.296875 -0.71875,0.78125 0,0.53125 0.53125,0.875 1.140625,0.875 0.5625,0 0.9375,-0.421875 1.0625,-0.609375 0.25,0.421875 0.8125,0.609375 1.375,0.609375 1.265625,0 1.9375,-1.21875 1.9375,-1.546875 0,-0.140625 -0.15625,-0.140625 -0.234375,-0.140625 -0.125,0 -0.1875,0 -0.234375,0.125 -0.28125,0.90625 -1,1.203125 -1.421875,1.203125 -0.375,0 -0.546875,-0.171875 -0.546875,-0.5 0,-0.203125 0.125,-0.734375 0.21875,-1.109375 0.0625,-0.25 0.296875,-1.1875 0.34375,-1.34375 0.15625,-0.609375 0.5,-0.90625 0.84375,-0.90625 0.0625,0 0.28125,0 0.484375,0.140625 z m 0,0"
               id="id-8cd6849a-aa60-416c-9069-0ef8bcc9057d" />
          </g>
          <g
             id="id-04445d37-977f-440b-a0c1-dcc87bfb65a7">
            <path
               d="M 5.796875,-3.9375 7.125,-5.234375 l 0.609375,-0.625 c 0.40625,-0.375 0.515625,-0.5 1.5625,-0.515625 0.1875,0 0.203125,-0.25 0.203125,-0.28125 0,-0.0625 -0.046875,-0.1875 -0.203125,-0.1875 -0.34375,0 -0.71875,0.03125 -1.078125,0.03125 -0.296875,0 -1.015625,-0.03125 -1.296875,-0.03125 -0.078125,0 -0.28125,0 -0.28125,0.28125 0,0.1875 0.15625,0.1875 0.25,0.1875 0.296875,0.015625 0.5625,0.09375 0.59375,0.109375 l -1.90625,1.875 L 4.671875,-6.3125 C 4.765625,-6.328125 5.078125,-6.375 5.25,-6.375 c 0.109375,0 0.28125,0 0.28125,-0.28125 0,-0.125 -0.09375,-0.1875 -0.21875,-0.1875 -0.34375,0 -1.171875,0.03125 -1.515625,0.03125 -0.234375,0 -0.453125,0 -0.6875,0 -0.234375,0 -0.46875,-0.03125 -0.703125,-0.03125 -0.078125,0 -0.265625,0 -0.265625,0.28125 0,0.1875 0.125,0.1875 0.40625,0.1875 0.140625,0 0.25,0 0.390625,0.015625 0.140625,0.015625 0.140625,0.03125 0.203125,0.15625 l 1.375,2.875 -2.5,2.46875 c -0.1875,0.171875 -0.390625,0.375 -1.28125,0.390625 -0.171875,0 -0.34375,0 -0.34375,0.296875 C 0.390625,-0.109375 0.4375,0 0.59375,0 0.828125,0 1.4375,-0.03125 1.671875,-0.03125 1.96875,-0.03125 2.6875,0 2.96875,0 3.046875,0 3.25,0 3.25,-0.296875 3.25,-0.46875 3.078125,-0.46875 2.984375,-0.46875 2.796875,-0.46875 2.59375,-0.5 2.40625,-0.5625 l 2.3125,-2.3125 1.140625,2.34375 c -0.015625,0 -0.34375,0.0625 -0.578125,0.0625 -0.109375,0 -0.296875,0 -0.296875,0.296875 C 4.984375,-0.15625 5,0 5.203125,0 c 0.34375,0 1.1875,-0.03125 1.53125,-0.03125 0.21875,0 0.453125,0.015625 0.6875,0.015625 C 7.640625,-0.015625 7.890625,0 8.109375,0 8.1875,0 8.390625,0 8.390625,-0.296875 8.390625,-0.46875 8.234375,-0.46875 8,-0.46875 c -0.140625,0 -0.25,0 -0.390625,-0.015625 C 7.453125,-0.5 7.453125,-0.515625 7.375,-0.640625 Z m 0,0"
               id="id-cf7af02a-1be0-46f3-a0ef-554634545024" />
          </g>
          <g
             id="id-4030e381-3aba-40cf-8541-647352ad75b9">
            <path
               d="m 3.296875,2.390625 c 0,-0.03125 0,-0.046875 -0.171875,-0.21875 C 1.890625,0.921875 1.5625,-0.96875 1.5625,-2.5 c 0,-1.734375 0.375,-3.46875 1.609375,-4.703125 0.125,-0.125 0.125,-0.140625 0.125,-0.171875 0,-0.078125 -0.03125,-0.109375 -0.09375,-0.109375 -0.109375,0 -1,0.6875 -1.59375,1.953125 -0.5,1.09375 -0.625,2.203125 -0.625,3.03125 0,0.78125 0.109375,1.984375 0.65625,3.125 C 2.25,1.84375 3.09375,2.5 3.203125,2.5 c 0.0625,0 0.09375,-0.03125 0.09375,-0.109375 z m 0,0"
               id="id-3a12d699-01e3-4f7f-9a81-5ecaa5083f9e" />
          </g>
          <g
             id="id-e3649d07-6b5e-48eb-ab1d-3dfe8d5cbc28">
            <path
               d="m 2.875,-2.5 c 0,-0.765625 -0.109375,-1.96875 -0.65625,-3.109375 -0.59375,-1.21875 -1.453125,-1.875 -1.546875,-1.875 -0.0625,0 -0.109375,0.046875 -0.109375,0.109375 0,0.03125 0,0.046875 0.1875,0.234375 0.984375,0.984375 1.546875,2.5625 1.546875,4.640625 0,1.71875 -0.359375,3.46875 -1.59375,4.71875 C 0.5625,2.34375 0.5625,2.359375 0.5625,2.390625 0.5625,2.453125 0.609375,2.5 0.671875,2.5 0.765625,2.5 1.671875,1.8125 2.25,0.546875 2.765625,-0.546875 2.875,-1.65625 2.875,-2.5 Z m 0,0"
               id="id-15706e32-605f-4381-834e-20d41a8d38ce" />
          </g>
        </g>
      </defs>
      <g
         fill="#000000"
         fill-opacity="1"
         id="id-78229465-71f8-4724-8836-c93430cc8727"
         transform="translate(-149.087,-127.281)">
        <g
           transform="translate(148.712,134.765)"
           id="g141">
          <path
             d="m 5.34375,-4 c -0.359375,0.109375 -0.53125,0.4375 -0.53125,0.6875 0,0.21875 0.15625,0.46875 0.484375,0.46875 0.359375,0 0.71875,-0.296875 0.71875,-0.78125 C 6.015625,-4.15625 5.5,-4.5 4.890625,-4.5 4.3125,-4.5 3.953125,-4.078125 3.8125,-3.890625 3.5625,-4.3125 3.015625,-4.5 2.4375,-4.5 c -1.25,0 -1.921875,1.21875 -1.921875,1.546875 0,0.140625 0.140625,0.140625 0.234375,0.140625 0.125,0 0.1875,0 0.234375,-0.125 0.28125,-0.90625 1,-1.203125 1.40625,-1.203125 0.375,0 0.5625,0.171875 0.5625,0.484375 0,0.203125 -0.140625,0.75 -0.234375,1.109375 L 2.375,-1.1875 c -0.140625,0.609375 -0.5,0.90625 -0.84375,0.90625 -0.046875,0 -0.28125,0 -0.46875,-0.140625 0.359375,-0.109375 0.53125,-0.453125 0.53125,-0.6875 0,-0.21875 -0.171875,-0.46875 -0.5,-0.46875 -0.34375,0 -0.71875,0.296875 -0.71875,0.78125 0,0.53125 0.53125,0.875 1.140625,0.875 0.5625,0 0.9375,-0.421875 1.0625,-0.609375 0.25,0.421875 0.8125,0.609375 1.375,0.609375 1.265625,0 1.9375,-1.21875 1.9375,-1.546875 0,-0.140625 -0.15625,-0.140625 -0.234375,-0.140625 -0.125,0 -0.1875,0 -0.234375,0.125 -0.28125,0.90625 -1,1.203125 -1.421875,1.203125 -0.375,0 -0.546875,-0.171875 -0.546875,-0.5 0,-0.203125 0.125,-0.734375 0.21875,-1.109375 0.0625,-0.25 0.296875,-1.1875 0.34375,-1.34375 0.15625,-0.609375 0.5,-0.90625 0.84375,-0.90625 0.0625,0 0.28125,0 0.484375,0.140625 z m 0,0"
             id="id-1b4bbe65-ed39-419c-955e-907302539478" />
        </g>
      </g>
      <g
         fill="#000000"
         fill-opacity="1"
         id="id-ea302540-247a-4d37-a048-9e9d1a9c5768"
         transform="translate(-149.087,-127.281)">
        <g
           transform="translate(155.278,134.765)"
           id="g3362">
          <path
             d="m 3.296875,2.390625 c 0,-0.03125 0,-0.046875 -0.171875,-0.21875 C 1.890625,0.921875 1.5625,-0.96875 1.5625,-2.5 c 0,-1.734375 0.375,-3.46875 1.609375,-4.703125 0.125,-0.125 0.125,-0.140625 0.125,-0.171875 0,-0.078125 -0.03125,-0.109375 -0.09375,-0.109375 -0.109375,0 -1,0.6875 -1.59375,1.953125 -0.5,1.09375 -0.625,2.203125 -0.625,3.03125 0,0.78125 0.109375,1.984375 0.65625,3.125 C 2.25,1.84375 3.09375,2.5 3.203125,2.5 c 0.0625,0 0.09375,-0.03125 0.09375,-0.109375 z m 0,0"
             id="id-63828e64-5031-49a9-9332-26a2cc279c72" />
        </g>
      </g>
      <g
         fill="#000000"
         fill-opacity="1"
         id="id-b526237e-126e-45e6-9f2c-ea3e62825628"
         transform="translate(-149.087,-127.281)">
        <g
           transform="translate(159.152,134.765)"
           id="g9070">
          <path
             d="M 5.796875,-3.9375 7.125,-5.234375 l 0.609375,-0.625 c 0.40625,-0.375 0.515625,-0.5 1.5625,-0.515625 0.1875,0 0.203125,-0.25 0.203125,-0.28125 0,-0.0625 -0.046875,-0.1875 -0.203125,-0.1875 -0.34375,0 -0.71875,0.03125 -1.078125,0.03125 -0.296875,0 -1.015625,-0.03125 -1.296875,-0.03125 -0.078125,0 -0.28125,0 -0.28125,0.28125 0,0.1875 0.15625,0.1875 0.25,0.1875 0.296875,0.015625 0.5625,0.09375 0.59375,0.109375 l -1.90625,1.875 L 4.671875,-6.3125 C 4.765625,-6.328125 5.078125,-6.375 5.25,-6.375 c 0.109375,0 0.28125,0 0.28125,-0.28125 0,-0.125 -0.09375,-0.1875 -0.21875,-0.1875 -0.34375,0 -1.171875,0.03125 -1.515625,0.03125 -0.234375,0 -0.453125,0 -0.6875,0 -0.234375,0 -0.46875,-0.03125 -0.703125,-0.03125 -0.078125,0 -0.265625,0 -0.265625,0.28125 0,0.1875 0.125,0.1875 0.40625,0.1875 0.140625,0 0.25,0 0.390625,0.015625 0.140625,0.015625 0.140625,0.03125 0.203125,0.15625 l 1.375,2.875 -2.5,2.46875 c -0.1875,0.171875 -0.390625,0.375 -1.28125,0.390625 -0.171875,0 -0.34375,0 -0.34375,0.296875 C 0.390625,-0.109375 0.4375,0 0.59375,0 0.828125,0 1.4375,-0.03125 1.671875,-0.03125 1.96875,-0.03125 2.6875,0 2.96875,0 3.046875,0 3.25,0 3.25,-0.296875 3.25,-0.46875 3.078125,-0.46875 2.984375,-0.46875 2.796875,-0.46875 2.59375,-0.5 2.40625,-0.5625 l 2.3125,-2.3125 1.140625,2.34375 c -0.015625,0 -0.34375,0.0625 -0.578125,0.0625 -0.109375,0 -0.296875,0 -0.296875,0.296875 C 4.984375,-0.15625 5,0 5.203125,0 c 0.34375,0 1.1875,-0.03125 1.53125,-0.03125 0.21875,0 0.453125,0.015625 0.6875,0.015625 C 7.640625,-0.015625 7.890625,0 8.109375,0 8.1875,0 8.390625,0 8.390625,-0.296875 8.390625,-0.46875 8.234375,-0.46875 8,-0.46875 c -0.140625,0 -0.25,0 -0.390625,-0.015625 C 7.453125,-0.5 7.453125,-0.515625 7.375,-0.640625 Z m 0,0"
             id="id-deb585e2-7c76-4392-bf26-3c8b263b659d" />
        </g>
      </g>
      <g
         fill="#000000"
         fill-opacity="1"
         id="id-34041ac6-f457-450b-b8b7-24df8c8e9279"
         transform="translate(-149.087,-127.281)">
        <g
           transform="translate(169.364,134.765)"
           id="g1932">
          <path
             d="m 2.875,-2.5 c 0,-0.765625 -0.109375,-1.96875 -0.65625,-3.109375 -0.59375,-1.21875 -1.453125,-1.875 -1.546875,-1.875 -0.0625,0 -0.109375,0.046875 -0.109375,0.109375 0,0.03125 0,0.046875 0.1875,0.234375 0.984375,0.984375 1.546875,2.5625 1.546875,4.640625 0,1.71875 -0.359375,3.46875 -1.59375,4.71875 C 0.5625,2.34375 0.5625,2.359375 0.5625,2.390625 0.5625,2.453125 0.609375,2.5 0.671875,2.5 0.765625,2.5 1.671875,1.8125 2.25,0.546875 2.765625,-0.546875 2.875,-1.65625 2.875,-2.5 Z m 0,0"
             id="id-27abd835-453d-4dec-a000-cfd32d693979" />
        </g>
      </g>
    </g>
    <g
       transform="matrix(0.8920185,0,0,1.0200143,99.232143,29.199143)"
       ns2:version="1.10.2"
       ns2:texconverter="pdflatex"
       ns2:pdfconverter="inkscape"
       ns2:text="$\\bm{x}_{\\rm{I}}$"
       ns2:preamble="C:\Users\Himanshu\AppData\Roaming\inkscape\extensions\textext\default_packages.tex"
       ns2:scale="1.0"
       ns2:alignment="middle center"
       ns2:stroke-to-path="0"
       ns2:inkscapeversion="1.3.2"
       id="g8990"
       ns2:jacobian_sqrt="0.352778">
      <defs
         id="id-0c839f21-ca13-493a-a696-2721fc7f8b53">
        <g
           id="id-0f895132-95ec-4c77-88fa-a2c5e059c7fb">
          <g
             id="id-d89847b0-a5cb-48f4-8bbf-79d7c0526be4">
            <path
               d="m 5.34375,-4 c -0.359375,0.109375 -0.53125,0.4375 -0.53125,0.6875 0,0.21875 0.15625,0.46875 0.484375,0.46875 0.359375,0 0.71875,-0.296875 0.71875,-0.78125 C 6.015625,-4.15625 5.5,-4.5 4.890625,-4.5 4.3125,-4.5 3.953125,-4.078125 3.8125,-3.890625 3.5625,-4.3125 3.015625,-4.5 2.4375,-4.5 c -1.25,0 -1.921875,1.21875 -1.921875,1.546875 0,0.140625 0.140625,0.140625 0.234375,0.140625 0.125,0 0.1875,0 0.234375,-0.125 0.28125,-0.90625 1,-1.203125 1.40625,-1.203125 0.375,0 0.5625,0.171875 0.5625,0.484375 0,0.203125 -0.140625,0.75 -0.234375,1.109375 L 2.375,-1.1875 c -0.140625,0.609375 -0.5,0.90625 -0.84375,0.90625 -0.046875,0 -0.28125,0 -0.46875,-0.140625 0.359375,-0.109375 0.53125,-0.453125 0.53125,-0.6875 0,-0.21875 -0.171875,-0.46875 -0.5,-0.46875 -0.34375,0 -0.71875,0.296875 -0.71875,0.78125 0,0.53125 0.53125,0.875 1.140625,0.875 0.5625,0 0.9375,-0.421875 1.0625,-0.609375 0.25,0.421875 0.8125,0.609375 1.375,0.609375 1.265625,0 1.9375,-1.21875 1.9375,-1.546875 0,-0.140625 -0.15625,-0.140625 -0.234375,-0.140625 -0.125,0 -0.1875,0 -0.234375,0.125 -0.28125,0.90625 -1,1.203125 -1.421875,1.203125 -0.375,0 -0.546875,-0.171875 -0.546875,-0.5 0,-0.203125 0.125,-0.734375 0.21875,-1.109375 0.0625,-0.25 0.296875,-1.1875 0.34375,-1.34375 0.15625,-0.609375 0.5,-0.90625 0.84375,-0.90625 0.0625,0 0.28125,0 0.484375,0.140625 z m 0,0"
               id="id-697f8b00-8660-4fc3-8aaa-553ca44ef293" />
          </g>
          <g
             id="id-8cb857a7-a64b-45c1-ba78-8a576723c244">
            <path
               d="m 1.765625,-4.1875 c 0,-0.234375 0,-0.328125 0.578125,-0.328125 h 0.171875 v -0.25 c -0.046875,0 -0.796875,0.03125 -1.078125,0.03125 -0.28125,0 -1.046875,-0.03125 -1.078125,-0.03125 v 0.25 H 0.53125 c 0.578125,0 0.578125,0.09375 0.578125,0.328125 v 3.609375 c 0,0.25 0,0.328125 -0.578125,0.328125 H 0.359375 V 0 C 0.40625,0 1.15625,-0.03125 1.4375,-0.03125 1.71875,-0.03125 2.484375,0 2.515625,0 V -0.25 H 2.34375 c -0.578125,0 -0.578125,-0.078125 -0.578125,-0.328125 z m 0,0"
               id="id-e8c98eb1-d3db-4cd2-a7da-ff8d843b20bc" />
          </g>
        </g>
      </defs>
      <g
         fill="#000000"
         fill-opacity="1"
         id="id-45e79d66-7f64-48ee-aec2-9d49b93a73ed"
         transform="translate(-149.087,-130.265)">
        <g
           transform="translate(148.712,134.765)"
           id="g7835">
          <path
             d="m 5.34375,-4 c -0.359375,0.109375 -0.53125,0.4375 -0.53125,0.6875 0,0.21875 0.15625,0.46875 0.484375,0.46875 0.359375,0 0.71875,-0.296875 0.71875,-0.78125 C 6.015625,-4.15625 5.5,-4.5 4.890625,-4.5 4.3125,-4.5 3.953125,-4.078125 3.8125,-3.890625 3.5625,-4.3125 3.015625,-4.5 2.4375,-4.5 c -1.25,0 -1.921875,1.21875 -1.921875,1.546875 0,0.140625 0.140625,0.140625 0.234375,0.140625 0.125,0 0.1875,0 0.234375,-0.125 0.28125,-0.90625 1,-1.203125 1.40625,-1.203125 0.375,0 0.5625,0.171875 0.5625,0.484375 0,0.203125 -0.140625,0.75 -0.234375,1.109375 L 2.375,-1.1875 c -0.140625,0.609375 -0.5,0.90625 -0.84375,0.90625 -0.046875,0 -0.28125,0 -0.46875,-0.140625 0.359375,-0.109375 0.53125,-0.453125 0.53125,-0.6875 0,-0.21875 -0.171875,-0.46875 -0.5,-0.46875 -0.34375,0 -0.71875,0.296875 -0.71875,0.78125 0,0.53125 0.53125,0.875 1.140625,0.875 0.5625,0 0.9375,-0.421875 1.0625,-0.609375 0.25,0.421875 0.8125,0.609375 1.375,0.609375 1.265625,0 1.9375,-1.21875 1.9375,-1.546875 0,-0.140625 -0.15625,-0.140625 -0.234375,-0.140625 -0.125,0 -0.1875,0 -0.234375,0.125 -0.28125,0.90625 -1,1.203125 -1.421875,1.203125 -0.375,0 -0.546875,-0.171875 -0.546875,-0.5 0,-0.203125 0.125,-0.734375 0.21875,-1.109375 0.0625,-0.25 0.296875,-1.1875 0.34375,-1.34375 0.15625,-0.609375 0.5,-0.90625 0.84375,-0.90625 0.0625,0 0.28125,0 0.484375,0.140625 z m 0,0"
             id="id-a39af562-a11d-44ae-bc68-c9a6daf20db3" />
        </g>
      </g>
      <g
         fill="#000000"
         fill-opacity="1"
         id="id-a6ba1932-c702-42cc-802f-bc4f87d20602"
         transform="translate(-149.087,-130.265)">
        <g
           transform="translate(155.278,136.259)"
           id="g2343">
          <path
             d="m 1.765625,-4.1875 c 0,-0.234375 0,-0.328125 0.578125,-0.328125 h 0.171875 v -0.25 c -0.046875,0 -0.796875,0.03125 -1.078125,0.03125 -0.28125,0 -1.046875,-0.03125 -1.078125,-0.03125 v 0.25 H 0.53125 c 0.578125,0 0.578125,0.09375 0.578125,0.328125 v 3.609375 c 0,0.25 0,0.328125 -0.578125,0.328125 H 0.359375 V 0 C 0.40625,0 1.15625,-0.03125 1.4375,-0.03125 1.71875,-0.03125 2.484375,0 2.515625,0 V -0.25 H 2.34375 c -0.578125,0 -0.578125,-0.078125 -0.578125,-0.328125 z m 0,0"
             id="id-487e66c8-04e3-4287-9f4d-a0e55e2c7528" />
        </g>
      </g>
    </g>
    <g
       transform="matrix(0.74794252,0,0,0.92750505,130.81371,26.408906)"
       ns2:version="1.10.2"
       ns2:texconverter="pdflatex"
       ns2:pdfconverter="inkscape"
       ns2:text="$\\bm{x}(\\bm{x}_{\\rm{I}})$"
       ns2:preamble="C:\Users\Himanshu\AppData\Roaming\inkscape\extensions\textext\default_packages.tex"
       ns2:scale="1.0"
       ns2:alignment="middle center"
       ns2:stroke-to-path="0"
       ns2:inkscapeversion="1.3.2"
       id="g7657"
       ns2:jacobian_sqrt="0.352778">
      <defs
         id="id-1d537dad-7f66-4157-8ed9-2fad747df063">
        <g
           id="id-6e439186-5cd6-492e-aec5-2d7558758402">
          <g
             id="id-24786921-ac59-429e-b137-c3d78881a03a">
            <path
               d="m 5.34375,-4 c -0.359375,0.109375 -0.53125,0.4375 -0.53125,0.6875 0,0.21875 0.15625,0.46875 0.484375,0.46875 0.359375,0 0.71875,-0.296875 0.71875,-0.78125 C 6.015625,-4.15625 5.5,-4.5 4.890625,-4.5 4.3125,-4.5 3.953125,-4.078125 3.8125,-3.890625 3.5625,-4.3125 3.015625,-4.5 2.4375,-4.5 c -1.25,0 -1.921875,1.21875 -1.921875,1.546875 0,0.140625 0.140625,0.140625 0.234375,0.140625 0.125,0 0.1875,0 0.234375,-0.125 0.28125,-0.90625 1,-1.203125 1.40625,-1.203125 0.375,0 0.5625,0.171875 0.5625,0.484375 0,0.203125 -0.140625,0.75 -0.234375,1.109375 L 2.375,-1.1875 c -0.140625,0.609375 -0.5,0.90625 -0.84375,0.90625 -0.046875,0 -0.28125,0 -0.46875,-0.140625 0.359375,-0.109375 0.53125,-0.453125 0.53125,-0.6875 0,-0.21875 -0.171875,-0.46875 -0.5,-0.46875 -0.34375,0 -0.71875,0.296875 -0.71875,0.78125 0,0.53125 0.53125,0.875 1.140625,0.875 0.5625,0 0.9375,-0.421875 1.0625,-0.609375 0.25,0.421875 0.8125,0.609375 1.375,0.609375 1.265625,0 1.9375,-1.21875 1.9375,-1.546875 0,-0.140625 -0.15625,-0.140625 -0.234375,-0.140625 -0.125,0 -0.1875,0 -0.234375,0.125 -0.28125,0.90625 -1,1.203125 -1.421875,1.203125 -0.375,0 -0.546875,-0.171875 -0.546875,-0.5 0,-0.203125 0.125,-0.734375 0.21875,-1.109375 0.0625,-0.25 0.296875,-1.1875 0.34375,-1.34375 0.15625,-0.609375 0.5,-0.90625 0.84375,-0.90625 0.0625,0 0.28125,0 0.484375,0.140625 z m 0,0"
               id="id-6bd6f6cf-eefd-468b-b9c9-de83e146810f" />
          </g>
          <g
             id="id-0a146a30-3bf1-411d-8207-d287f774ccd3">
            <path
               d="m 3.296875,2.390625 c 0,-0.03125 0,-0.046875 -0.171875,-0.21875 C 1.890625,0.921875 1.5625,-0.96875 1.5625,-2.5 c 0,-1.734375 0.375,-3.46875 1.609375,-4.703125 0.125,-0.125 0.125,-0.140625 0.125,-0.171875 0,-0.078125 -0.03125,-0.109375 -0.09375,-0.109375 -0.109375,0 -1,0.6875 -1.59375,1.953125 -0.5,1.09375 -0.625,2.203125 -0.625,3.03125 0,0.78125 0.109375,1.984375 0.65625,3.125 C 2.25,1.84375 3.09375,2.5 3.203125,2.5 c 0.0625,0 0.09375,-0.03125 0.09375,-0.109375 z m 0,0"
               id="id-6c15e38c-b19c-4a1d-8b10-1f69fa5dfed6" />
          </g>
          <g
             id="id-c36493e6-2850-4eb5-aa85-c45c0a60eab5">
            <path
               d="m 2.875,-2.5 c 0,-0.765625 -0.109375,-1.96875 -0.65625,-3.109375 -0.59375,-1.21875 -1.453125,-1.875 -1.546875,-1.875 -0.0625,0 -0.109375,0.046875 -0.109375,0.109375 0,0.03125 0,0.046875 0.1875,0.234375 0.984375,0.984375 1.546875,2.5625 1.546875,4.640625 0,1.71875 -0.359375,3.46875 -1.59375,4.71875 C 0.5625,2.34375 0.5625,2.359375 0.5625,2.390625 0.5625,2.453125 0.609375,2.5 0.671875,2.5 0.765625,2.5 1.671875,1.8125 2.25,0.546875 2.765625,-0.546875 2.875,-1.65625 2.875,-2.5 Z m 0,0"
               id="id-3d51a563-a6bd-4c59-8342-4c6cd9951c3b" />
          </g>
          <g
             id="id-ed7a35fb-3fca-4563-bb67-17ef777cf5c2">
            <path
               d="m 1.765625,-4.1875 c 0,-0.234375 0,-0.328125 0.578125,-0.328125 h 0.171875 v -0.25 c -0.046875,0 -0.796875,0.03125 -1.078125,0.03125 -0.28125,0 -1.046875,-0.03125 -1.078125,-0.03125 v 0.25 H 0.53125 c 0.578125,0 0.578125,0.09375 0.578125,0.328125 v 3.609375 c 0,0.25 0,0.328125 -0.578125,0.328125 H 0.359375 V 0 C 0.40625,0 1.15625,-0.03125 1.4375,-0.03125 1.71875,-0.03125 2.484375,0 2.515625,0 V -0.25 H 2.34375 c -0.578125,0 -0.578125,-0.078125 -0.578125,-0.328125 z m 0,0"
               id="id-be93d19d-0c55-4d4e-8b32-99ca1030b231" />
          </g>
        </g>
      </defs>
      <g
         fill="#000000"
         fill-opacity="1"
         id="id-98878861-75e3-4977-8177-0fa518ed5366"
         transform="translate(-149.087,-127.281)">
        <g
           transform="translate(148.712,134.765)"
           id="g4361">
          <path
             d="m 5.34375,-4 c -0.359375,0.109375 -0.53125,0.4375 -0.53125,0.6875 0,0.21875 0.15625,0.46875 0.484375,0.46875 0.359375,0 0.71875,-0.296875 0.71875,-0.78125 C 6.015625,-4.15625 5.5,-4.5 4.890625,-4.5 4.3125,-4.5 3.953125,-4.078125 3.8125,-3.890625 3.5625,-4.3125 3.015625,-4.5 2.4375,-4.5 c -1.25,0 -1.921875,1.21875 -1.921875,1.546875 0,0.140625 0.140625,0.140625 0.234375,0.140625 0.125,0 0.1875,0 0.234375,-0.125 0.28125,-0.90625 1,-1.203125 1.40625,-1.203125 0.375,0 0.5625,0.171875 0.5625,0.484375 0,0.203125 -0.140625,0.75 -0.234375,1.109375 L 2.375,-1.1875 c -0.140625,0.609375 -0.5,0.90625 -0.84375,0.90625 -0.046875,0 -0.28125,0 -0.46875,-0.140625 0.359375,-0.109375 0.53125,-0.453125 0.53125,-0.6875 0,-0.21875 -0.171875,-0.46875 -0.5,-0.46875 -0.34375,0 -0.71875,0.296875 -0.71875,0.78125 0,0.53125 0.53125,0.875 1.140625,0.875 0.5625,0 0.9375,-0.421875 1.0625,-0.609375 0.25,0.421875 0.8125,0.609375 1.375,0.609375 1.265625,0 1.9375,-1.21875 1.9375,-1.546875 0,-0.140625 -0.15625,-0.140625 -0.234375,-0.140625 -0.125,0 -0.1875,0 -0.234375,0.125 -0.28125,0.90625 -1,1.203125 -1.421875,1.203125 -0.375,0 -0.546875,-0.171875 -0.546875,-0.5 0,-0.203125 0.125,-0.734375 0.21875,-1.109375 0.0625,-0.25 0.296875,-1.1875 0.34375,-1.34375 0.15625,-0.609375 0.5,-0.90625 0.84375,-0.90625 0.0625,0 0.28125,0 0.484375,0.140625 z m 0,0"
             id="id-8d4294f4-f759-4ed7-b700-dd5b4d61ee01" />
        </g>
      </g>
      <g
         fill="#000000"
         fill-opacity="1"
         id="id-3511b251-9744-45e8-8218-8ba8e829a92e"
         transform="translate(-149.087,-127.281)">
        <g
           transform="translate(155.278,134.765)"
           id="g1683">
          <path
             d="m 3.296875,2.390625 c 0,-0.03125 0,-0.046875 -0.171875,-0.21875 C 1.890625,0.921875 1.5625,-0.96875 1.5625,-2.5 c 0,-1.734375 0.375,-3.46875 1.609375,-4.703125 0.125,-0.125 0.125,-0.140625 0.125,-0.171875 0,-0.078125 -0.03125,-0.109375 -0.09375,-0.109375 -0.109375,0 -1,0.6875 -1.59375,1.953125 -0.5,1.09375 -0.625,2.203125 -0.625,3.03125 0,0.78125 0.109375,1.984375 0.65625,3.125 C 2.25,1.84375 3.09375,2.5 3.203125,2.5 c 0.0625,0 0.09375,-0.03125 0.09375,-0.109375 z m 0,0"
             id="id-c77728cc-bb6d-4538-aa67-ac233cd2bf1a" />
        </g>
      </g>
      <g
         fill="#000000"
         fill-opacity="1"
         id="id-a6ae65a5-d400-4313-91f8-6ae763e5c84f"
         transform="translate(-149.087,-127.281)">
        <g
           transform="translate(159.152,134.765)"
           id="g7325">
          <path
             d="m 5.34375,-4 c -0.359375,0.109375 -0.53125,0.4375 -0.53125,0.6875 0,0.21875 0.15625,0.46875 0.484375,0.46875 0.359375,0 0.71875,-0.296875 0.71875,-0.78125 C 6.015625,-4.15625 5.5,-4.5 4.890625,-4.5 4.3125,-4.5 3.953125,-4.078125 3.8125,-3.890625 3.5625,-4.3125 3.015625,-4.5 2.4375,-4.5 c -1.25,0 -1.921875,1.21875 -1.921875,1.546875 0,0.140625 0.140625,0.140625 0.234375,0.140625 0.125,0 0.1875,0 0.234375,-0.125 0.28125,-0.90625 1,-1.203125 1.40625,-1.203125 0.375,0 0.5625,0.171875 0.5625,0.484375 0,0.203125 -0.140625,0.75 -0.234375,1.109375 L 2.375,-1.1875 c -0.140625,0.609375 -0.5,0.90625 -0.84375,0.90625 -0.046875,0 -0.28125,0 -0.46875,-0.140625 0.359375,-0.109375 0.53125,-0.453125 0.53125,-0.6875 0,-0.21875 -0.171875,-0.46875 -0.5,-0.46875 -0.34375,0 -0.71875,0.296875 -0.71875,0.78125 0,0.53125 0.53125,0.875 1.140625,0.875 0.5625,0 0.9375,-0.421875 1.0625,-0.609375 0.25,0.421875 0.8125,0.609375 1.375,0.609375 1.265625,0 1.9375,-1.21875 1.9375,-1.546875 0,-0.140625 -0.15625,-0.140625 -0.234375,-0.140625 -0.125,0 -0.1875,0 -0.234375,0.125 -0.28125,0.90625 -1,1.203125 -1.421875,1.203125 -0.375,0 -0.546875,-0.171875 -0.546875,-0.5 0,-0.203125 0.125,-0.734375 0.21875,-1.109375 0.0625,-0.25 0.296875,-1.1875 0.34375,-1.34375 0.15625,-0.609375 0.5,-0.90625 0.84375,-0.90625 0.0625,0 0.28125,0 0.484375,0.140625 z m 0,0"
             id="id-a9e0cf7d-8b20-4c42-8d13-a6928a0f71c4" />
        </g>
      </g>
      <g
         fill="#000000"
         fill-opacity="1"
         id="id-493b5bbd-7edd-444b-b9da-cbf45bce6ecc"
         transform="translate(-149.087,-127.281)">
        <g
           transform="translate(165.718,136.259)"
           id="g5934">
          <path
             d="m 1.765625,-4.1875 c 0,-0.234375 0,-0.328125 0.578125,-0.328125 h 0.171875 v -0.25 c -0.046875,0 -0.796875,0.03125 -1.078125,0.03125 -0.28125,0 -1.046875,-0.03125 -1.078125,-0.03125 v 0.25 H 0.53125 c 0.578125,0 0.578125,0.09375 0.578125,0.328125 v 3.609375 c 0,0.25 0,0.328125 -0.578125,0.328125 H 0.359375 V 0 C 0.40625,0 1.15625,-0.03125 1.4375,-0.03125 1.71875,-0.03125 2.484375,0 2.515625,0 V -0.25 H 2.34375 c -0.578125,0 -0.578125,-0.078125 -0.578125,-0.328125 z m 0,0"
             id="id-b7b8e8fa-0e7f-45b4-a01c-21995f6594ce" />
        </g>
      </g>
      <g
         fill="#000000"
         fill-opacity="1"
         id="id-d1d2e99d-4156-4dc0-8eb2-2ff55d391519"
         transform="translate(-149.087,-127.281)">
        <g
           transform="translate(169.094,134.765)"
           id="g3371">
          <path
             d="m 2.875,-2.5 c 0,-0.765625 -0.109375,-1.96875 -0.65625,-3.109375 -0.59375,-1.21875 -1.453125,-1.875 -1.546875,-1.875 -0.0625,0 -0.109375,0.046875 -0.109375,0.109375 0,0.03125 0,0.046875 0.1875,0.234375 0.984375,0.984375 1.546875,2.5625 1.546875,4.640625 0,1.71875 -0.359375,3.46875 -1.59375,4.71875 C 0.5625,2.34375 0.5625,2.359375 0.5625,2.390625 0.5625,2.453125 0.609375,2.5 0.671875,2.5 0.765625,2.5 1.671875,1.8125 2.25,0.546875 2.765625,-0.546875 2.875,-1.65625 2.875,-2.5 Z m 0,0"
             id="id-c78bbb98-417e-4329-8dab-20ec15968d5d" />
        </g>
      </g>
    </g>
    <g
       transform="matrix(0.77884454,0,0,0.94492101,58.528921,28.669452)"
       ns2:version="1.10.2"
       ns2:texconverter="pdflatex"
       ns2:pdfconverter="inkscape"
       ns2:text="$\\bm{x}_{\\rm{I}}(\\bm{X})$"
       ns2:preamble="C:\Users\Himanshu\AppData\Roaming\inkscape\extensions\textext\default_packages.tex"
       ns2:scale="1.0"
       ns2:alignment="middle center"
       ns2:stroke-to-path="0"
       ns2:inkscapeversion="1.3.2"
       id="g1155"
       ns2:jacobian_sqrt="0.352778">
      <defs
         id="id-4622d6d7-2748-4f64-b721-97850bfe77d1">
        <g
           id="id-7305868c-8edd-466d-bc20-dc201882e6dc">
          <g
             id="id-89e14047-b98a-49f2-a296-fd42bce6e683">
            <path
               d="m 5.34375,-4 c -0.359375,0.109375 -0.53125,0.4375 -0.53125,0.6875 0,0.21875 0.15625,0.46875 0.484375,0.46875 0.359375,0 0.71875,-0.296875 0.71875,-0.78125 C 6.015625,-4.15625 5.5,-4.5 4.890625,-4.5 4.3125,-4.5 3.953125,-4.078125 3.8125,-3.890625 3.5625,-4.3125 3.015625,-4.5 2.4375,-4.5 c -1.25,0 -1.921875,1.21875 -1.921875,1.546875 0,0.140625 0.140625,0.140625 0.234375,0.140625 0.125,0 0.1875,0 0.234375,-0.125 0.28125,-0.90625 1,-1.203125 1.40625,-1.203125 0.375,0 0.5625,0.171875 0.5625,0.484375 0,0.203125 -0.140625,0.75 -0.234375,1.109375 L 2.375,-1.1875 c -0.140625,0.609375 -0.5,0.90625 -0.84375,0.90625 -0.046875,0 -0.28125,0 -0.46875,-0.140625 0.359375,-0.109375 0.53125,-0.453125 0.53125,-0.6875 0,-0.21875 -0.171875,-0.46875 -0.5,-0.46875 -0.34375,0 -0.71875,0.296875 -0.71875,0.78125 0,0.53125 0.53125,0.875 1.140625,0.875 0.5625,0 0.9375,-0.421875 1.0625,-0.609375 0.25,0.421875 0.8125,0.609375 1.375,0.609375 1.265625,0 1.9375,-1.21875 1.9375,-1.546875 0,-0.140625 -0.15625,-0.140625 -0.234375,-0.140625 -0.125,0 -0.1875,0 -0.234375,0.125 -0.28125,0.90625 -1,1.203125 -1.421875,1.203125 -0.375,0 -0.546875,-0.171875 -0.546875,-0.5 0,-0.203125 0.125,-0.734375 0.21875,-1.109375 0.0625,-0.25 0.296875,-1.1875 0.34375,-1.34375 0.15625,-0.609375 0.5,-0.90625 0.84375,-0.90625 0.0625,0 0.28125,0 0.484375,0.140625 z m 0,0"
               id="id-8a7d7544-1050-4339-bd89-380aad8f2a86" />
          </g>
          <g
             id="id-6c5d155a-41a3-4234-95af-b43f5299ac9c">
            <path
               d="M 5.796875,-3.9375 7.125,-5.234375 l 0.609375,-0.625 c 0.40625,-0.375 0.515625,-0.5 1.5625,-0.515625 0.1875,0 0.203125,-0.25 0.203125,-0.28125 0,-0.0625 -0.046875,-0.1875 -0.203125,-0.1875 -0.34375,0 -0.71875,0.03125 -1.078125,0.03125 -0.296875,0 -1.015625,-0.03125 -1.296875,-0.03125 -0.078125,0 -0.28125,0 -0.28125,0.28125 0,0.1875 0.15625,0.1875 0.25,0.1875 0.296875,0.015625 0.5625,0.09375 0.59375,0.109375 l -1.90625,1.875 L 4.671875,-6.3125 C 4.765625,-6.328125 5.078125,-6.375 5.25,-6.375 c 0.109375,0 0.28125,0 0.28125,-0.28125 0,-0.125 -0.09375,-0.1875 -0.21875,-0.1875 -0.34375,0 -1.171875,0.03125 -1.515625,0.03125 -0.234375,0 -0.453125,0 -0.6875,0 -0.234375,0 -0.46875,-0.03125 -0.703125,-0.03125 -0.078125,0 -0.265625,0 -0.265625,0.28125 0,0.1875 0.125,0.1875 0.40625,0.1875 0.140625,0 0.25,0 0.390625,0.015625 0.140625,0.015625 0.140625,0.03125 0.203125,0.15625 l 1.375,2.875 -2.5,2.46875 c -0.1875,0.171875 -0.390625,0.375 -1.28125,0.390625 -0.171875,0 -0.34375,0 -0.34375,0.296875 C 0.390625,-0.109375 0.4375,0 0.59375,0 0.828125,0 1.4375,-0.03125 1.671875,-0.03125 1.96875,-0.03125 2.6875,0 2.96875,0 3.046875,0 3.25,0 3.25,-0.296875 3.25,-0.46875 3.078125,-0.46875 2.984375,-0.46875 2.796875,-0.46875 2.59375,-0.5 2.40625,-0.5625 l 2.3125,-2.3125 1.140625,2.34375 c -0.015625,0 -0.34375,0.0625 -0.578125,0.0625 -0.109375,0 -0.296875,0 -0.296875,0.296875 C 4.984375,-0.15625 5,0 5.203125,0 c 0.34375,0 1.1875,-0.03125 1.53125,-0.03125 0.21875,0 0.453125,0.015625 0.6875,0.015625 C 7.640625,-0.015625 7.890625,0 8.109375,0 8.1875,0 8.390625,0 8.390625,-0.296875 8.390625,-0.46875 8.234375,-0.46875 8,-0.46875 c -0.140625,0 -0.25,0 -0.390625,-0.015625 C 7.453125,-0.5 7.453125,-0.515625 7.375,-0.640625 Z m 0,0"
               id="id-259d44e3-cd0a-4213-b53c-4c4618ad5ffd" />
          </g>
          <g
             id="id-85663eb3-4fc8-4c94-8224-622b41c403c2">
            <path
               d="m 1.765625,-4.1875 c 0,-0.234375 0,-0.328125 0.578125,-0.328125 h 0.171875 v -0.25 c -0.046875,0 -0.796875,0.03125 -1.078125,0.03125 -0.28125,0 -1.046875,-0.03125 -1.078125,-0.03125 v 0.25 H 0.53125 c 0.578125,0 0.578125,0.09375 0.578125,0.328125 v 3.609375 c 0,0.25 0,0.328125 -0.578125,0.328125 H 0.359375 V 0 C 0.40625,0 1.15625,-0.03125 1.4375,-0.03125 1.71875,-0.03125 2.484375,0 2.515625,0 V -0.25 H 2.34375 c -0.578125,0 -0.578125,-0.078125 -0.578125,-0.328125 z m 0,0"
               id="id-6b918b7a-41ac-437f-8dbb-c73f1abe91ed" />
          </g>
          <g
             id="id-aa76fd97-48da-4b0b-a766-27bbb74bfe53">
            <path
               d="m 3.296875,2.390625 c 0,-0.03125 0,-0.046875 -0.171875,-0.21875 C 1.890625,0.921875 1.5625,-0.96875 1.5625,-2.5 c 0,-1.734375 0.375,-3.46875 1.609375,-4.703125 0.125,-0.125 0.125,-0.140625 0.125,-0.171875 0,-0.078125 -0.03125,-0.109375 -0.09375,-0.109375 -0.109375,0 -1,0.6875 -1.59375,1.953125 -0.5,1.09375 -0.625,2.203125 -0.625,3.03125 0,0.78125 0.109375,1.984375 0.65625,3.125 C 2.25,1.84375 3.09375,2.5 3.203125,2.5 c 0.0625,0 0.09375,-0.03125 0.09375,-0.109375 z m 0,0"
               id="id-50f01be8-80b8-4dfc-8590-e22d04647af4" />
          </g>
          <g
             id="id-7f93ce82-0752-424e-bf4a-937b8071d49d">
            <path
               d="m 2.875,-2.5 c 0,-0.765625 -0.109375,-1.96875 -0.65625,-3.109375 -0.59375,-1.21875 -1.453125,-1.875 -1.546875,-1.875 -0.0625,0 -0.109375,0.046875 -0.109375,0.109375 0,0.03125 0,0.046875 0.1875,0.234375 0.984375,0.984375 1.546875,2.5625 1.546875,4.640625 0,1.71875 -0.359375,3.46875 -1.59375,4.71875 C 0.5625,2.34375 0.5625,2.359375 0.5625,2.390625 0.5625,2.453125 0.609375,2.5 0.671875,2.5 0.765625,2.5 1.671875,1.8125 2.25,0.546875 2.765625,-0.546875 2.875,-1.65625 2.875,-2.5 Z m 0,0"
               id="id-2e231750-44bf-4056-b8f4-4476937cbe3e" />
          </g>
        </g>
      </defs>
      <g
         fill="#000000"
         fill-opacity="1"
         id="id-11575ece-1e6b-4c0b-84b9-0bb855219ec1"
         transform="translate(-149.087,-127.281)">
        <g
           transform="translate(148.712,134.765)"
           id="g476">
          <path
             d="m 5.34375,-4 c -0.359375,0.109375 -0.53125,0.4375 -0.53125,0.6875 0,0.21875 0.15625,0.46875 0.484375,0.46875 0.359375,0 0.71875,-0.296875 0.71875,-0.78125 C 6.015625,-4.15625 5.5,-4.5 4.890625,-4.5 4.3125,-4.5 3.953125,-4.078125 3.8125,-3.890625 3.5625,-4.3125 3.015625,-4.5 2.4375,-4.5 c -1.25,0 -1.921875,1.21875 -1.921875,1.546875 0,0.140625 0.140625,0.140625 0.234375,0.140625 0.125,0 0.1875,0 0.234375,-0.125 0.28125,-0.90625 1,-1.203125 1.40625,-1.203125 0.375,0 0.5625,0.171875 0.5625,0.484375 0,0.203125 -0.140625,0.75 -0.234375,1.109375 L 2.375,-1.1875 c -0.140625,0.609375 -0.5,0.90625 -0.84375,0.90625 -0.046875,0 -0.28125,0 -0.46875,-0.140625 0.359375,-0.109375 0.53125,-0.453125 0.53125,-0.6875 0,-0.21875 -0.171875,-0.46875 -0.5,-0.46875 -0.34375,0 -0.71875,0.296875 -0.71875,0.78125 0,0.53125 0.53125,0.875 1.140625,0.875 0.5625,0 0.9375,-0.421875 1.0625,-0.609375 0.25,0.421875 0.8125,0.609375 1.375,0.609375 1.265625,0 1.9375,-1.21875 1.9375,-1.546875 0,-0.140625 -0.15625,-0.140625 -0.234375,-0.140625 -0.125,0 -0.1875,0 -0.234375,0.125 -0.28125,0.90625 -1,1.203125 -1.421875,1.203125 -0.375,0 -0.546875,-0.171875 -0.546875,-0.5 0,-0.203125 0.125,-0.734375 0.21875,-1.109375 0.0625,-0.25 0.296875,-1.1875 0.34375,-1.34375 0.15625,-0.609375 0.5,-0.90625 0.84375,-0.90625 0.0625,0 0.28125,0 0.484375,0.140625 z m 0,0"
             id="id-4ef4a09d-c03c-445e-aa67-5ea7e6f69e40" />
        </g>
      </g>
      <g
         fill="#000000"
         fill-opacity="1"
         id="id-2e3757ac-e6d0-494d-b41b-97a512bdf07c"
         transform="translate(-149.087,-127.281)">
        <g
           transform="translate(155.278,136.259)"
           id="g3311">
          <path
             d="m 1.765625,-4.1875 c 0,-0.234375 0,-0.328125 0.578125,-0.328125 h 0.171875 v -0.25 c -0.046875,0 -0.796875,0.03125 -1.078125,0.03125 -0.28125,0 -1.046875,-0.03125 -1.078125,-0.03125 v 0.25 H 0.53125 c 0.578125,0 0.578125,0.09375 0.578125,0.328125 v 3.609375 c 0,0.25 0,0.328125 -0.578125,0.328125 H 0.359375 V 0 C 0.40625,0 1.15625,-0.03125 1.4375,-0.03125 1.71875,-0.03125 2.484375,0 2.515625,0 V -0.25 H 2.34375 c -0.578125,0 -0.578125,-0.078125 -0.578125,-0.328125 z m 0,0"
             id="id-edb54ca9-74b4-4913-968c-309789f6e064" />
        </g>
      </g>
      <g
         fill="#000000"
         fill-opacity="1"
         id="id-89e54cd3-aded-432e-8f28-bf57125c64ef"
         transform="translate(-149.087,-127.281)">
        <g
           transform="translate(158.654,134.765)"
           id="g685">
          <path
             d="m 3.296875,2.390625 c 0,-0.03125 0,-0.046875 -0.171875,-0.21875 C 1.890625,0.921875 1.5625,-0.96875 1.5625,-2.5 c 0,-1.734375 0.375,-3.46875 1.609375,-4.703125 0.125,-0.125 0.125,-0.140625 0.125,-0.171875 0,-0.078125 -0.03125,-0.109375 -0.09375,-0.109375 -0.109375,0 -1,0.6875 -1.59375,1.953125 -0.5,1.09375 -0.625,2.203125 -0.625,3.03125 0,0.78125 0.109375,1.984375 0.65625,3.125 C 2.25,1.84375 3.09375,2.5 3.203125,2.5 c 0.0625,0 0.09375,-0.03125 0.09375,-0.109375 z m 0,0"
             id="id-bec7561f-b9fa-456c-9afa-4cfe58750779" />
        </g>
      </g>
      <g
         fill="#000000"
         fill-opacity="1"
         id="id-d35a217e-0c44-4713-9850-cbd13c980587"
         transform="translate(-149.087,-127.281)">
        <g
           transform="translate(162.529,134.765)"
           id="g1916">
          <path
             d="M 5.796875,-3.9375 7.125,-5.234375 l 0.609375,-0.625 c 0.40625,-0.375 0.515625,-0.5 1.5625,-0.515625 0.1875,0 0.203125,-0.25 0.203125,-0.28125 0,-0.0625 -0.046875,-0.1875 -0.203125,-0.1875 -0.34375,0 -0.71875,0.03125 -1.078125,0.03125 -0.296875,0 -1.015625,-0.03125 -1.296875,-0.03125 -0.078125,0 -0.28125,0 -0.28125,0.28125 0,0.1875 0.15625,0.1875 0.25,0.1875 0.296875,0.015625 0.5625,0.09375 0.59375,0.109375 l -1.90625,1.875 L 4.671875,-6.3125 C 4.765625,-6.328125 5.078125,-6.375 5.25,-6.375 c 0.109375,0 0.28125,0 0.28125,-0.28125 0,-0.125 -0.09375,-0.1875 -0.21875,-0.1875 -0.34375,0 -1.171875,0.03125 -1.515625,0.03125 -0.234375,0 -0.453125,0 -0.6875,0 -0.234375,0 -0.46875,-0.03125 -0.703125,-0.03125 -0.078125,0 -0.265625,0 -0.265625,0.28125 0,0.1875 0.125,0.1875 0.40625,0.1875 0.140625,0 0.25,0 0.390625,0.015625 0.140625,0.015625 0.140625,0.03125 0.203125,0.15625 l 1.375,2.875 -2.5,2.46875 c -0.1875,0.171875 -0.390625,0.375 -1.28125,0.390625 -0.171875,0 -0.34375,0 -0.34375,0.296875 C 0.390625,-0.109375 0.4375,0 0.59375,0 0.828125,0 1.4375,-0.03125 1.671875,-0.03125 1.96875,-0.03125 2.6875,0 2.96875,0 3.046875,0 3.25,0 3.25,-0.296875 3.25,-0.46875 3.078125,-0.46875 2.984375,-0.46875 2.796875,-0.46875 2.59375,-0.5 2.40625,-0.5625 l 2.3125,-2.3125 1.140625,2.34375 c -0.015625,0 -0.34375,0.0625 -0.578125,0.0625 -0.109375,0 -0.296875,0 -0.296875,0.296875 C 4.984375,-0.15625 5,0 5.203125,0 c 0.34375,0 1.1875,-0.03125 1.53125,-0.03125 0.21875,0 0.453125,0.015625 0.6875,0.015625 C 7.640625,-0.015625 7.890625,0 8.109375,0 8.1875,0 8.390625,0 8.390625,-0.296875 8.390625,-0.46875 8.234375,-0.46875 8,-0.46875 c -0.140625,0 -0.25,0 -0.390625,-0.015625 C 7.453125,-0.5 7.453125,-0.515625 7.375,-0.640625 Z m 0,0"
             id="id-cd752424-d5f5-40a4-9dd0-6c1679af13c5" />
        </g>
      </g>
      <g
         fill="#000000"
         fill-opacity="1"
         id="id-6bcca9cd-69e6-48d6-8de1-21df4c46b9dd"
         transform="translate(-149.087,-127.281)">
        <g
           transform="translate(172.74,134.765)"
           id="g4126">
          <path
             d="m 2.875,-2.5 c 0,-0.765625 -0.109375,-1.96875 -0.65625,-3.109375 -0.59375,-1.21875 -1.453125,-1.875 -1.546875,-1.875 -0.0625,0 -0.109375,0.046875 -0.109375,0.109375 0,0.03125 0,0.046875 0.1875,0.234375 0.984375,0.984375 1.546875,2.5625 1.546875,4.640625 0,1.71875 -0.359375,3.46875 -1.59375,4.71875 C 0.5625,2.34375 0.5625,2.359375 0.5625,2.390625 0.5625,2.453125 0.609375,2.5 0.671875,2.5 0.765625,2.5 1.671875,1.8125 2.25,0.546875 2.765625,-0.546875 2.875,-1.65625 2.875,-2.5 Z m 0,0"
             id="id-9e4b5ba5-77bb-44aa-9607-81854f0a977c" />
        </g>
      </g>
    </g>
  </g>
</svg>
